/* Created with The GIMP */
#define template_file_width 64
#define template_file_height 512
static unsigned char template_file_bits[] = {
   0xff, 0xff, 0xff, 0xff, 0xff, 0xff, 0xff, 0xff, 0xff, 0xff, 0xff, 0xff,
   0xff, 0xff, 0xff, 0xff, 0xff, 0xff, 0xff, 0xff, 0xff, 0xff, 0xff, 0xff,
   0x1f, 0x00, 0x00, 0x00, 0x00, 0x00, 0x00, 0xe0, 0x1f, 0x00, 0x00, 0x00,
   0x00, 0x00, 0x00, 0xe0, 0x1f, 0x00, 0x00, 0x00, 0x00, 0x00, 0x00, 0xe0,
   0x1f, 0x00, 0x00, 0x00, 0x00, 0x00, 0x00, 0xe0, 0x1f, 0x00, 0x00, 0x00,
   0x00, 0x00, 0x00, 0xe0, 0x1f, 0x00, 0x00, 0x00, 0x00, 0x00, 0x00, 0xe0,
   0x1f, 0x00, 0x00, 0x00, 0x00, 0x00, 0x00, 0xe0, 0x1f, 0x00, 0x00, 0x00,
   0x00, 0x00, 0x00, 0xe0, 0x1f, 0x00, 0x00, 0x00, 0x00, 0x00, 0x00, 0xe0,
   0x1f, 0x00, 0x00, 0x00, 0x00, 0x00, 0x00, 0xe0, 0x1f, 0x00, 0x00, 0x00,
   0x00, 0x00, 0x00, 0xe0, 0x1f, 0x00, 0x00, 0x00, 0x00, 0x00, 0x00, 0xe0,
   0x1f, 0x00, 0x00, 0x00, 0x00, 0x00, 0x00, 0xe0, 0x1f, 0x00, 0x00, 0x00,
   0x00, 0x00, 0x00, 0xe0, 0x1f, 0x00, 0x00, 0x00, 0x00, 0x00, 0x00, 0xe0,
   0x1f, 0x00, 0x00, 0x00, 0x00, 0x00, 0x00, 0xe0, 0x1f, 0x00, 0x00, 0x70,
   0x00, 0x00, 0x00, 0xe0, 0x1f, 0x00, 0x00, 0x38, 0x00, 0x00, 0x00, 0xe0,
   0x1f, 0x00, 0x00, 0x00, 0x00, 0x08, 0x00, 0xe0, 0x1f, 0x00, 0x00, 0x10,
   0x00, 0x08, 0x00, 0xe0, 0x1f, 0x00, 0x00, 0xf0, 0xff, 0x0f, 0x00, 0xe0,
   0x1f, 0x00, 0x00, 0xe0, 0xff, 0x0f, 0x00, 0xe0, 0x1f, 0x00, 0x00, 0x80,
   0x88, 0x1c, 0x00, 0xe0, 0x1f, 0x00, 0x00, 0x00, 0x00, 0x08, 0x00, 0xe0,
   0x1f, 0x00, 0x00, 0x00, 0x00, 0x00, 0x00, 0xe0, 0x1f, 0x00, 0x00, 0x40,
   0x29, 0x00, 0x00, 0xe0, 0x1f, 0x00, 0x00, 0xe0, 0x7f, 0x00, 0x00, 0xe0,
   0x1f, 0x00, 0x00, 0xf0, 0x3f, 0x00, 0x00, 0xe0, 0x1f, 0x00, 0x00, 0x10,
   0x00, 0x00, 0x00, 0xe0, 0x1f, 0x00, 0x00, 0x18, 0x00, 0x00, 0x00, 0xe0,
   0x1f, 0x00, 0x00, 0x10, 0x00, 0x00, 0x00, 0xe0, 0x1f, 0x00, 0x00, 0x10,
   0x40, 0x00, 0x00, 0xe0, 0x1f, 0x00, 0x00, 0xf0, 0x3e, 0x00, 0x00, 0xe0,
   0x1f, 0x00, 0x00, 0xf0, 0x3f, 0x00, 0x00, 0xe0, 0x1f, 0x00, 0x00, 0x50,
   0x20, 0x00, 0x00, 0xe0, 0x1f, 0x00, 0x00, 0x10, 0x00, 0x00, 0x00, 0xe0,
   0x1f, 0x00, 0x00, 0x00, 0x00, 0x00, 0x00, 0xe0, 0x1f, 0x00, 0x00, 0x70,
   0x1c, 0x00, 0x00, 0xe0, 0x1f, 0x00, 0x00, 0x10, 0x3e, 0x00, 0x00, 0xe0,
   0x1f, 0x00, 0x00, 0x10, 0x26, 0x00, 0x00, 0xe0, 0x1f, 0x00, 0x00, 0x00,
   0x23, 0x00, 0x00, 0xe0, 0x1f, 0x00, 0x00, 0x08, 0x43, 0x00, 0x00, 0xe0,
   0x1f, 0x00, 0x00, 0x90, 0x21, 0x00, 0x00, 0xe0, 0x1f, 0x00, 0x00, 0xf0,
   0x39, 0x00, 0x00, 0xe0, 0x1f, 0x00, 0x00, 0xa0, 0x00, 0x00, 0x00, 0xe0,
   0x1f, 0x00, 0x00, 0x00, 0x00, 0x00, 0x00, 0xe0, 0x1f, 0x00, 0x00, 0x00,
   0x20, 0x00, 0x00, 0xe0, 0x1f, 0x00, 0x00, 0xe0, 0x6e, 0x00, 0x00, 0xe0,
   0x1f, 0x00, 0x00, 0xf0, 0xff, 0x00, 0x00, 0xe0, 0x1f, 0x00, 0x00, 0xd8,
   0x7a, 0x01, 0x00, 0xe0, 0x1f, 0x00, 0x00, 0x10, 0x00, 0x00, 0x00, 0xe0,
   0x1f, 0x00, 0x00, 0x00, 0x40, 0x00, 0x00, 0xe0, 0x1f, 0x00, 0x00, 0x00,
   0x00, 0x00, 0x00, 0xe0, 0x1f, 0x00, 0x00, 0x00, 0x00, 0x00, 0x00, 0xe0,
   0x1f, 0x00, 0x00, 0x00, 0x00, 0x00, 0x00, 0xe0, 0x1f, 0x00, 0x00, 0x00,
   0x00, 0x00, 0x00, 0xe0, 0x1f, 0x00, 0x00, 0x00, 0x00, 0x00, 0x00, 0xe0,
   0x1f, 0x00, 0x00, 0x00, 0x00, 0x00, 0x00, 0xe0, 0x1f, 0x00, 0x00, 0x20,
   0x00, 0x00, 0x00, 0xe0, 0x1f, 0x00, 0x00, 0xe0, 0x18, 0x00, 0x00, 0xe0,
   0x1f, 0x00, 0x00, 0xf8, 0x39, 0x00, 0x00, 0xe0, 0x1f, 0x00, 0x00, 0x10,
   0x51, 0x00, 0x00, 0xe0, 0x1f, 0x00, 0x00, 0x10, 0x02, 0x00, 0x00, 0xe0,
   0x1f, 0x00, 0x00, 0x10, 0x26, 0x00, 0x00, 0xe0, 0x1f, 0x00, 0x00, 0xf0,
   0x3d, 0x00, 0x00, 0xe0, 0x1f, 0x00, 0x00, 0xf0, 0x3f, 0x00, 0x00, 0xe0,
   0x1f, 0x00, 0x00, 0x50, 0x15, 0x00, 0x00, 0xe0, 0x1f, 0x00, 0x00, 0x30,
   0x00, 0x00, 0x00, 0xe0, 0x1f, 0x00, 0x00, 0x00, 0x00, 0x00, 0x00, 0xe0,
   0x1f, 0x00, 0x00, 0x00, 0x00, 0x00, 0x00, 0xe0, 0x1f, 0x00, 0x00, 0x00,
   0x00, 0x00, 0x00, 0xe0, 0x1f, 0x00, 0x00, 0x00, 0x00, 0x00, 0x00, 0xe0,
   0x1f, 0x00, 0x00, 0x00, 0x00, 0x00, 0x00, 0xe0, 0x1f, 0x00, 0x00, 0x00,
   0x00, 0x00, 0x00, 0xe0, 0x1f, 0x00, 0x00, 0x00, 0x00, 0x00, 0x00, 0xe0,
   0x1f, 0x00, 0x00, 0x00, 0x00, 0x0f, 0x00, 0xe0, 0x1f, 0x00, 0x00, 0x00,
   0x00, 0x0c, 0x00, 0xe0, 0x1f, 0x00, 0x00, 0x00, 0x00, 0x08, 0x00, 0xe0,
   0x1f, 0x00, 0x00, 0x00, 0x00, 0x18, 0x00, 0xe0, 0x1f, 0x00, 0x00, 0x10,
   0x00, 0x08, 0x00, 0xe0, 0x1f, 0x00, 0x00, 0x50, 0x92, 0x08, 0x00, 0xe0,
   0x1f, 0x00, 0x00, 0xf8, 0xff, 0x0f, 0x00, 0xe0, 0x1f, 0x00, 0x00, 0xf0,
   0xff, 0x0f, 0x00, 0xe0, 0x1f, 0x00, 0x00, 0x10, 0x00, 0x08, 0x00, 0xe0,
   0x1f, 0x00, 0x00, 0x00, 0x00, 0x18, 0x00, 0xe0, 0x1f, 0x00, 0x00, 0x00,
   0x00, 0x08, 0x00, 0xe0, 0x1f, 0x00, 0x00, 0x00, 0x00, 0x08, 0x00, 0xe0,
   0x1f, 0x00, 0x00, 0x00, 0x00, 0x0c, 0x00, 0xe0, 0x1f, 0x00, 0x00, 0x00,
   0x00, 0x0f, 0x00, 0xe0, 0x1f, 0x00, 0x00, 0x80, 0x05, 0x00, 0x00, 0xe0,
   0x1f, 0x00, 0x00, 0xe0, 0x1f, 0x00, 0x00, 0xe0, 0x1f, 0x00, 0x00, 0x70,
   0x34, 0x00, 0x00, 0xe0, 0x1f, 0x00, 0x00, 0x30, 0x24, 0x00, 0x00, 0xe0,
   0x1f, 0x00, 0x00, 0x10, 0x44, 0x00, 0x00, 0xe0, 0x1f, 0x00, 0x00, 0x10,
   0x24, 0x00, 0x00, 0xe0, 0x1f, 0x00, 0x00, 0x10, 0x34, 0x00, 0x00, 0xe0,
   0x1f, 0x00, 0x00, 0x20, 0x3c, 0x00, 0x00, 0xe0, 0x1f, 0x00, 0x00, 0x60,
   0x0c, 0x00, 0x00, 0xe0, 0x1f, 0x00, 0x00, 0x00, 0x00, 0x00, 0x00, 0xe0,
   0x1f, 0x00, 0x00, 0x00, 0x20, 0x00, 0x00, 0xe0, 0x1f, 0x00, 0x00, 0x90,
   0x24, 0x00, 0x00, 0xe0, 0x1f, 0x00, 0x00, 0xf8, 0x3f, 0x00, 0x00, 0xe0,
   0x1f, 0x00, 0x00, 0xf0, 0x3f, 0x00, 0x00, 0xe0, 0x1f, 0x00, 0x00, 0x10,
   0x10, 0x00, 0x00, 0xe0, 0x1f, 0x00, 0x00, 0x00, 0x20, 0x00, 0x00, 0xe0,
   0x1f, 0x00, 0x00, 0x00, 0x20, 0x00, 0x00, 0xe0, 0x1f, 0x00, 0x00, 0x08,
   0x20, 0x00, 0x00, 0xe0, 0x1f, 0x00, 0x00, 0xf0, 0x3f, 0x00, 0x00, 0xe0,
   0x1f, 0x00, 0x00, 0xf0, 0x3f, 0x00, 0x00, 0xe0, 0x1f, 0x00, 0x00, 0x10,
   0x18, 0x00, 0x00, 0xe0, 0x1f, 0x00, 0x00, 0x00, 0x30, 0x00, 0x00, 0xe0,
   0x1f, 0x00, 0x00, 0x00, 0x20, 0x00, 0x00, 0xe0, 0x1f, 0x00, 0x00, 0x08,
   0x20, 0x00, 0x00, 0xe0, 0x1f, 0x00, 0x00, 0x50, 0x32, 0x00, 0x00, 0xe0,
   0x1f, 0x00, 0x00, 0xf0, 0x3f, 0x00, 0x00, 0xe0, 0x1f, 0x00, 0x00, 0xf8,
   0x1f, 0x00, 0x00, 0xe0, 0x1f, 0x00, 0x00, 0x00, 0x00, 0x00, 0x00, 0xe0,
   0x1f, 0x00, 0x00, 0x00, 0x00, 0x00, 0x00, 0xe0, 0x1f, 0x00, 0x00, 0x00,
   0x20, 0x00, 0x00, 0xe0, 0x1f, 0x00, 0x80, 0xbf, 0x1b, 0x00, 0x00, 0xe0,
   0x1f, 0x00, 0x80, 0xff, 0x3f, 0x00, 0x00, 0xe0, 0x1f, 0x00, 0x80, 0xba,
   0x36, 0x00, 0x00, 0xe0, 0x1f, 0x00, 0x00, 0x10, 0x20, 0x00, 0x00, 0xe0,
   0x1f, 0x00, 0x00, 0x10, 0x20, 0x00, 0x00, 0xe0, 0x1f, 0x00, 0x00, 0x10,
   0x20, 0x00, 0x00, 0xe0, 0x1f, 0x00, 0x00, 0x10, 0x30, 0x00, 0x00, 0xe0,
   0x1f, 0x00, 0x00, 0x60, 0x3a, 0x00, 0x00, 0xe0, 0x1f, 0x00, 0x00, 0xe0,
   0x1f, 0x00, 0x00, 0xe0, 0x1f, 0x00, 0x00, 0x00, 0x0b, 0x00, 0x00, 0xe0,
   0x1f, 0x00, 0x00, 0x00, 0x00, 0x00, 0x00, 0xe0, 0x1f, 0x00, 0x00, 0x00,
   0x00, 0x00, 0x00, 0xe0, 0x1f, 0x00, 0x00, 0x10, 0x00, 0x00, 0x00, 0xe0,
   0x1f, 0x00, 0x00, 0xf0, 0xee, 0x07, 0x00, 0xe0, 0x1f, 0x00, 0x00, 0xf0,
   0xff, 0x0f, 0x00, 0xe0, 0x1f, 0x00, 0x00, 0xd0, 0x5a, 0x0d, 0x00, 0xe0,
   0x1f, 0x00, 0x00, 0x10, 0x00, 0x00, 0x00, 0xe0, 0x1f, 0x00, 0x00, 0x00,
   0x00, 0x00, 0x00, 0xe0, 0x1f, 0x00, 0x00, 0x60, 0x00, 0x00, 0x00, 0xe0,
   0x1f, 0x00, 0x00, 0xf0, 0x18, 0x00, 0x00, 0xe0, 0x1f, 0x00, 0x00, 0x70,
   0x39, 0x00, 0x00, 0xe0, 0x1f, 0x00, 0x00, 0x10, 0x23, 0x00, 0x00, 0xe0,
   0x1f, 0x00, 0x00, 0x10, 0x42, 0x00, 0x00, 0xe0, 0x1f, 0x00, 0x00, 0x20,
   0x24, 0x00, 0x00, 0xe0, 0x1f, 0x00, 0x00, 0xf0, 0x3f, 0x00, 0x00, 0xe0,
   0x1f, 0x00, 0x00, 0xf0, 0x3f, 0x00, 0x00, 0xe0, 0x1f, 0x00, 0x00, 0x98,
   0x08, 0x00, 0x00, 0xe0, 0x1f, 0x00, 0x00, 0x20, 0x00, 0x00, 0x00, 0xe0,
   0x1f, 0x00, 0x00, 0x00, 0x00, 0x00, 0x00, 0xe0, 0x1f, 0x00, 0x00, 0x20,
   0x69, 0x00, 0x00, 0xe0, 0x1f, 0x00, 0x00, 0xf0, 0xff, 0x00, 0x00, 0xe0,
   0x1f, 0x00, 0x00, 0xf0, 0xff, 0x01, 0x00, 0xe0, 0x1f, 0x00, 0x00, 0x10,
   0x00, 0x00, 0x00, 0xe0, 0x1f, 0x00, 0x00, 0x10, 0x20, 0x00, 0x00, 0xe0,
   0x1f, 0x00, 0x00, 0x00, 0x00, 0x00, 0x00, 0xe0, 0x1f, 0x00, 0x00, 0x00,
   0x07, 0x00, 0x00, 0xe0, 0x1f, 0x00, 0x00, 0xe0, 0x1d, 0x00, 0x00, 0xe0,
   0x1f, 0x00, 0x00, 0xf0, 0x34, 0x00, 0x00, 0xe0, 0x1f, 0x00, 0x00, 0x30,
   0x24, 0x00, 0x00, 0xe0, 0x1f, 0x00, 0x00, 0x10, 0x24, 0x00, 0x00, 0xe0,
   0x1f, 0x00, 0x00, 0x18, 0x24, 0x00, 0x00, 0xe0, 0x1f, 0x00, 0x00, 0x10,
   0x34, 0x00, 0x00, 0xe0, 0x1f, 0x00, 0x00, 0x20, 0x1c, 0x00, 0x00, 0xe0,
   0x1f, 0x00, 0x00, 0x60, 0x1c, 0x00, 0x00, 0xe0, 0x1f, 0x00, 0x00, 0x00,
   0x00, 0x00, 0x00, 0xe0, 0x1f, 0x00, 0x00, 0x00, 0x00, 0x00, 0x00, 0xe0,
   0x1f, 0x00, 0x00, 0x00, 0x00, 0x00, 0x00, 0xe0, 0x1f, 0x00, 0x00, 0x00,
   0x00, 0x00, 0x00, 0xe0, 0x1f, 0x00, 0x00, 0x00, 0x00, 0x00, 0x00, 0xe0,
   0x1f, 0x00, 0x00, 0x00, 0x00, 0x00, 0x00, 0xe0, 0x1f, 0x00, 0x00, 0x00,
   0x00, 0x00, 0x00, 0xe0, 0x1f, 0x00, 0x00, 0x08, 0x20, 0x00, 0x00, 0xe0,
   0x1f, 0x00, 0x00, 0x10, 0x00, 0x00, 0x00, 0xe0, 0x1f, 0x00, 0x00, 0xf0,
   0xff, 0x01, 0x00, 0xe0, 0x1f, 0x00, 0x00, 0xf8, 0xff, 0x07, 0x00, 0xe0,
   0x1f, 0x00, 0x00, 0x30, 0x52, 0x0c, 0x00, 0xe0, 0x1f, 0x00, 0x00, 0x00,
   0x40, 0x08, 0x00, 0xe0, 0x1f, 0x00, 0x00, 0x00, 0x00, 0x0c, 0x00, 0xe0,
   0x1f, 0x00, 0x00, 0x00, 0x00, 0x0c, 0x00, 0xe0, 0x1f, 0x00, 0x00, 0x00,
   0x04, 0x04, 0x00, 0xe0, 0x1f, 0x00, 0x00, 0xc0, 0x0f, 0x00, 0x00, 0xe0,
   0x1f, 0x00, 0x00, 0xe0, 0x1f, 0x00, 0x00, 0xe0, 0x1f, 0x00, 0x00, 0x70,
   0x30, 0x00, 0x00, 0xe0, 0x1f, 0x00, 0x00, 0x10, 0x20, 0x00, 0x00, 0xe0,
   0x1f, 0x00, 0x00, 0x00, 0x40, 0x00, 0x00, 0xe0, 0x1f, 0x00, 0x00, 0x08,
   0x20, 0x00, 0x00, 0xe0, 0x1f, 0x00, 0x00, 0x10, 0x20, 0x00, 0x00, 0xe0,
   0x1f, 0x00, 0x00, 0x60, 0x3a, 0x00, 0x00, 0xe0, 0x1f, 0x00, 0x00, 0xe0,
   0x0f, 0x00, 0x00, 0xe0, 0x1f, 0x00, 0x00, 0x80, 0x06, 0x00, 0x00, 0xe0,
   0x1f, 0x00, 0x00, 0x00, 0x00, 0x00, 0x00, 0xe0, 0x1f, 0x00, 0x00, 0x00,
   0x20, 0x00, 0x00, 0xe0, 0x1f, 0x00, 0x00, 0x28, 0x29, 0x00, 0x00, 0xe0,
   0x1f, 0x00, 0x00, 0xf0, 0x3f, 0x00, 0x00, 0xe0, 0x1f, 0x00, 0x00, 0xf8,
   0x3f, 0x00, 0x00, 0xe0, 0x1f, 0x00, 0x00, 0x00, 0x10, 0x00, 0x00, 0xe0,
   0x1f, 0x00, 0x00, 0x00, 0x30, 0x00, 0x00, 0xe0, 0x1f, 0x00, 0x00, 0x00,
   0x30, 0x00, 0x00, 0xe0, 0x1f, 0x00, 0x00, 0x00, 0x20, 0x00, 0x00, 0xe0,
   0x1f, 0x00, 0x00, 0x00, 0x00, 0x00, 0x00, 0xe0, 0x1f, 0x00, 0x00, 0x00,
   0x00, 0x00, 0x00, 0xe0, 0x1f, 0x00, 0x00, 0x00, 0x00, 0x00, 0x00, 0xe0,
   0x1f, 0x00, 0x00, 0x00, 0x00, 0x00, 0x00, 0xe0, 0x1f, 0x00, 0x00, 0x00,
   0x00, 0x00, 0x00, 0xe0, 0x1f, 0x00, 0x00, 0x00, 0x00, 0x00, 0x00, 0xe0,
   0x1f, 0x00, 0x00, 0x08, 0x00, 0x08, 0x00, 0xe0, 0x1f, 0x00, 0x00, 0x10,
   0x00, 0x08, 0x00, 0xe0, 0x1f, 0x00, 0x00, 0xb0, 0xbb, 0x0f, 0x00, 0xe0,
   0x1f, 0x00, 0x00, 0xf8, 0xff, 0x0f, 0x00, 0xe0, 0x1f, 0x00, 0x00, 0x30,
   0x08, 0x18, 0x00, 0xe0, 0x1f, 0x00, 0x00, 0x00, 0x08, 0x08, 0x00, 0xe0,
   0x1f, 0x00, 0x00, 0x08, 0x08, 0x08, 0x00, 0xe0, 0x1f, 0x00, 0x00, 0x00,
   0x08, 0x08, 0x00, 0xe0, 0x1f, 0x00, 0x00, 0x00, 0x18, 0x0c, 0x00, 0xe0,
   0x1f, 0x00, 0x00, 0x00, 0x30, 0x06, 0x00, 0xe0, 0x1f, 0x00, 0x00, 0x00,
   0xf0, 0x0f, 0x00, 0xe0, 0x1f, 0x00, 0x00, 0x00, 0xf0, 0x03, 0x00, 0xe0,
   0x1f, 0x00, 0x00, 0x00, 0x00, 0x00, 0x00, 0xe0, 0x1f, 0x00, 0x00, 0x10,
   0x20, 0x00, 0x00, 0xe0, 0x1f, 0x00, 0x00, 0xf0, 0x37, 0x00, 0x00, 0xe0,
   0x1f, 0x00, 0x00, 0xf0, 0x3f, 0x00, 0x00, 0xe0, 0x1f, 0x00, 0x00, 0xa8,
   0x3a, 0x00, 0x00, 0xe0, 0x1f, 0x00, 0x00, 0x00, 0x10, 0x00, 0x00, 0xe0,
   0x1f, 0x00, 0x00, 0x00, 0x70, 0x00, 0x00, 0xe0, 0x1f, 0x00, 0x00, 0x00,
   0x30, 0x00, 0x00, 0xe0, 0x1f, 0x00, 0x00, 0x00, 0x00, 0x00, 0x00, 0xe0,
   0x1f, 0x00, 0x00, 0x10, 0x20, 0x00, 0x00, 0xe0, 0x1f, 0x00, 0x00, 0x70,
   0x37, 0x0c, 0x00, 0xe0, 0x1f, 0x00, 0x00, 0xf0, 0x3f, 0x0c, 0x00, 0xe0,
   0x1f, 0x00, 0x00, 0xd0, 0x3a, 0x0c, 0x00, 0xe0, 0x1f, 0x00, 0x00, 0x08,
   0x00, 0x00, 0x00, 0xe0, 0x1f, 0x00, 0x00, 0x00, 0x00, 0x00, 0x00, 0xe0,
   0x1f, 0x00, 0x00, 0x10, 0x20, 0x00, 0x00, 0xe0, 0x1f, 0x00, 0x00, 0xf0,
   0x3f, 0x00, 0x00, 0xe0, 0x1f, 0x00, 0x00, 0xf8, 0x3f, 0x00, 0x00, 0xe0,
   0x1f, 0x00, 0x00, 0x10, 0x31, 0x00, 0x00, 0xe0, 0x1f, 0x00, 0x00, 0x00,
   0x00, 0x00, 0x00, 0xe0, 0x1f, 0x00, 0x00, 0x00, 0x20, 0x00, 0x00, 0xe0,
   0x1f, 0x00, 0x00, 0x08, 0x20, 0x00, 0x00, 0xe0, 0x1f, 0x00, 0x00, 0x50,
   0x75, 0x00, 0x00, 0xe0, 0x1f, 0x00, 0x00, 0xf0, 0x3f, 0x00, 0x00, 0xe0,
   0x1f, 0x00, 0x00, 0xd0, 0x16, 0x00, 0x00, 0xe0, 0x1f, 0x00, 0x00, 0x08,
   0x00, 0x00, 0x00, 0xe0, 0x1f, 0x00, 0x00, 0x00, 0x00, 0x00, 0x00, 0xe0,
   0x1f, 0x00, 0x00, 0x20, 0x69, 0x00, 0x00, 0xe0, 0x1f, 0x00, 0x00, 0xf0,
   0xff, 0x00, 0x00, 0xe0, 0x1f, 0x00, 0x00, 0xf0, 0xff, 0x01, 0x00, 0xe0,
   0x1f, 0x00, 0x00, 0x10, 0x00, 0x00, 0x00, 0xe0, 0x1f, 0x00, 0x00, 0x10,
   0x40, 0x00, 0x00, 0xe0, 0x1f, 0x00, 0x00, 0x00, 0x00, 0x00, 0x00, 0xe0,
   0x1f, 0x00, 0x00, 0x00, 0x00, 0x00, 0x00, 0xe0, 0x1f, 0x00, 0x00, 0x50,
   0x32, 0x04, 0x00, 0xe0, 0x1f, 0x00, 0x00, 0xf8, 0x3f, 0x0c, 0x00, 0xe0,
   0x1f, 0x00, 0x00, 0xf0, 0x3f, 0x0c, 0x00, 0xe0, 0x1f, 0x00, 0x00, 0x10,
   0x00, 0x00, 0x00, 0xe0, 0x1f, 0x00, 0x00, 0x00, 0x00, 0x00, 0x00, 0xe0,
   0x1f, 0x00, 0x00, 0x10, 0x20, 0x00, 0x00, 0xe0, 0x1f, 0x00, 0x00, 0xd0,
   0x2e, 0x00, 0x00, 0xe0, 0x1f, 0x00, 0x00, 0xf0, 0x3f, 0x00, 0x00, 0xe0,
   0x1f, 0x00, 0x00, 0xd0, 0x3a, 0x00, 0x00, 0xe0, 0x1f, 0x00, 0x00, 0x08,
   0x00, 0x00, 0x00, 0xe0, 0x1f, 0x00, 0x00, 0x00, 0x20, 0x00, 0x00, 0xe0,
   0x1f, 0x00, 0x00, 0x00, 0x20, 0x00, 0x00, 0xe0, 0x1f, 0x00, 0x00, 0x10,
   0x70, 0x00, 0x00, 0xe0, 0x1f, 0x00, 0x00, 0xf8, 0x3f, 0x00, 0x00, 0xe0,
   0x1f, 0x00, 0x00, 0xf0, 0x1f, 0x00, 0x00, 0xe0, 0x1f, 0x00, 0x00, 0x00,
   0x00, 0x00, 0x00, 0xe0, 0x1f, 0x00, 0x00, 0x08, 0x00, 0x00, 0x00, 0xe0,
   0x1f, 0x00, 0x00, 0x03, 0x00, 0x00, 0x00, 0xe0, 0x1f, 0x00, 0x00, 0x37,
   0x1e, 0x00, 0x00, 0xe0, 0x1f, 0x00, 0x80, 0x79, 0x1f, 0x00, 0x00, 0xe0,
   0x1f, 0x00, 0x80, 0x78, 0x23, 0x00, 0x00, 0xe0, 0x1f, 0x00, 0x80, 0x98,
   0x20, 0x00, 0x00, 0xe0, 0x1f, 0x00, 0x80, 0x98, 0x20, 0x00, 0x00, 0xe0,
   0x1f, 0x00, 0x80, 0x98, 0x21, 0x00, 0x00, 0xe0, 0x1f, 0x00, 0x80, 0x18,
   0x33, 0x00, 0x00, 0xe0, 0x1f, 0x00, 0x00, 0x19, 0x3f, 0x00, 0x00, 0xe0,
   0x1f, 0x00, 0x00, 0x0f, 0x20, 0x00, 0x00, 0xe0, 0x1f, 0x00, 0x00, 0x00,
   0x00, 0x00, 0x00, 0xe0, 0x1f, 0x00, 0x00, 0x00, 0x00, 0x00, 0x00, 0xe0,
   0x1f, 0x00, 0x00, 0x00, 0x00, 0x00, 0x00, 0xe0, 0x1f, 0x00, 0x00, 0x00,
   0x00, 0x00, 0x00, 0xe0, 0x1f, 0x00, 0x00, 0x00, 0x00, 0x00, 0x00, 0xe0,
   0x1f, 0x00, 0x00, 0x00, 0x00, 0x00, 0x00, 0xe0, 0x1f, 0x00, 0x00, 0x00,
   0x00, 0x00, 0x00, 0xe0, 0x1f, 0x00, 0x00, 0x00, 0x00, 0x00, 0x00, 0xe0,
   0x1f, 0x00, 0x00, 0x00, 0x00, 0x00, 0x00, 0xe0, 0x1f, 0x00, 0x00, 0x00,
   0x00, 0x00, 0x00, 0xe0, 0x1f, 0x00, 0x00, 0x00, 0x00, 0x00, 0x00, 0xe0,
   0x1f, 0x00, 0x00, 0x00, 0x00, 0x00, 0x00, 0xe0, 0x1f, 0x00, 0x00, 0x00,
   0x00, 0x00, 0x00, 0xe0, 0x1f, 0x00, 0x00, 0x00, 0x00, 0x00, 0x00, 0xe0,
   0x1f, 0x00, 0x00, 0x00, 0x00, 0x00, 0x00, 0xe0, 0x1f, 0x00, 0x00, 0x00,
   0x00, 0x02, 0x00, 0xe0, 0x1f, 0x00, 0x00, 0x00, 0x80, 0x02, 0x00, 0xe0,
   0x1f, 0x00, 0x00, 0x00, 0x00, 0x04, 0x00, 0xe0, 0x1f, 0x00, 0x00, 0x00,
   0x00, 0x79, 0x00, 0xe0, 0x1f, 0x00, 0x00, 0x00, 0x00, 0x20, 0x00, 0xe0,
   0x1f, 0x00, 0x00, 0x00, 0x00, 0x00, 0x00, 0xe0, 0x1f, 0x00, 0x00, 0x00,
   0x00, 0x04, 0x00, 0xe0, 0x1f, 0x00, 0x00, 0x00, 0x00, 0x24, 0x00, 0xe0,
   0x1f, 0x00, 0x00, 0x00, 0x00, 0x04, 0x00, 0xe0, 0x1f, 0x00, 0x00, 0x00,
   0x00, 0xd8, 0x00, 0xe0, 0x1f, 0x00, 0x00, 0x00, 0x00, 0x00, 0x00, 0xe0,
   0x1f, 0x00, 0xf0, 0x07, 0x00, 0x12, 0x00, 0xe0, 0x1f, 0x00, 0xf0, 0x0f,
   0x00, 0x02, 0x00, 0xe0, 0x1f, 0x00, 0xd0, 0x07, 0x00, 0x06, 0x00, 0xe0,
   0x1f, 0x00, 0x60, 0x05, 0x00, 0x5c, 0x00, 0xe0, 0x1f, 0x00, 0x00, 0x00,
   0x00, 0x20, 0x00, 0xe0, 0x1f, 0x00, 0x00, 0x00, 0x00, 0x00, 0x00, 0xe0,
   0x1f, 0x00, 0x00, 0x02, 0x00, 0x04, 0x00, 0xe0, 0x1f, 0x00, 0x00, 0x05,
   0x00, 0x04, 0x00, 0xe0, 0x1f, 0x00, 0x30, 0x07, 0x00, 0x04, 0x00, 0xe0,
   0x1f, 0x00, 0x10, 0x0c, 0x00, 0x88, 0x00, 0xe0, 0x1f, 0x00, 0x10, 0x04,
   0x00, 0x30, 0x06, 0xe0, 0x1f, 0x00, 0x70, 0x04, 0x00, 0x02, 0x00, 0xe0,
   0x1f, 0x00, 0x60, 0x00, 0x00, 0x02, 0x00, 0xe0, 0x1f, 0x00, 0xa0, 0x00,
   0x00, 0x02, 0x00, 0xe0, 0x1f, 0x00, 0x00, 0x00, 0x00, 0x4c, 0x02, 0xe0,
   0x1f, 0x00, 0x00, 0x0a, 0x00, 0x38, 0x02, 0xe0, 0x1f, 0x00, 0x80, 0x0f,
   0x00, 0x20, 0x00, 0xe0, 0x1f, 0x00, 0x70, 0x07, 0x00, 0x00, 0x00, 0xe0,
   0x1f, 0x00, 0x30, 0x0f, 0x00, 0x04, 0x00, 0xe0, 0x1f, 0x00, 0x30, 0x0d,
   0x00, 0x04, 0x00, 0xe0, 0x1f, 0x00, 0xf0, 0x0c, 0x00, 0x0c, 0x0a, 0xe0,
   0x1f, 0x00, 0xf0, 0x0e, 0x00, 0x70, 0x18, 0xe0, 0x1f, 0x00, 0x70, 0x06,
   0x00, 0x00, 0x00, 0xe0, 0x1f, 0x00, 0xf0, 0x00, 0x00, 0x02, 0x00, 0xe0,
   0x1f, 0x00, 0x00, 0x00, 0x00, 0x02, 0x00, 0xe0, 0x1f, 0x00, 0x00, 0x01,
   0x00, 0x04, 0x0a, 0xe0, 0x1f, 0x00, 0x80, 0x03, 0x00, 0x7c, 0x0a, 0xe0,
   0x1f, 0x00, 0x20, 0x05, 0x00, 0x20, 0x00, 0xe0, 0x1f, 0x00, 0xe0, 0x0f,
   0x00, 0x00, 0x00, 0xe0, 0x1f, 0x00, 0xe0, 0x0d, 0x00, 0x18, 0x00, 0xe0,
   0x1f, 0x00, 0x00, 0x01, 0x00, 0x02, 0x00, 0xe0, 0x1f, 0x00, 0x80, 0x03,
   0x00, 0x02, 0x00, 0xe0, 0x1f, 0x00, 0x00, 0x01, 0x00, 0x02, 0x00, 0xe0,
   0x1f, 0x00, 0x00, 0x00, 0x00, 0x04, 0x00, 0xe0, 0x1f, 0x00, 0x00, 0x01,
   0x00, 0x64, 0x00, 0xe0, 0x1f, 0x00, 0x80, 0x03, 0x00, 0x28, 0x00, 0xe0,
   0x1f, 0x00, 0xc0, 0x03, 0x00, 0x20, 0x00, 0xe0, 0x1f, 0x00, 0xe0, 0x0f,
   0x00, 0x40, 0x02, 0xe0, 0x1f, 0x00, 0xf0, 0x0f, 0x00, 0x24, 0x00, 0xe0,
   0x1f, 0x00, 0xe0, 0x0f, 0x00, 0x40, 0x00, 0xe0, 0x1f, 0x00, 0xc0, 0x07,
   0x00, 0x10, 0x00, 0xe0, 0x1f, 0x00, 0xc0, 0x03, 0x00, 0x14, 0x00, 0xe0,
   0x1f, 0x00, 0xe0, 0x01, 0x00, 0x02, 0x00, 0xe0, 0x1f, 0x00, 0xd4, 0x00,
   0x00, 0x02, 0x00, 0xe0, 0x1f, 0x00, 0x42, 0x00, 0x00, 0x02, 0x00, 0xe0,
   0x1f, 0x00, 0x90, 0x00, 0x00, 0x04, 0x00, 0xe0, 0x1f, 0x00, 0xf0, 0x03,
   0x00, 0x38, 0x00, 0xe0, 0x1f, 0x00, 0x20, 0x00, 0x00, 0x20, 0x00, 0xe0,
   0x1f, 0x00, 0x00, 0x01, 0x00, 0x20, 0x00, 0xe0, 0x1f, 0x00, 0x00, 0x00,
   0x00, 0x24, 0x01, 0xe0, 0x1f, 0x00, 0x40, 0x00, 0x00, 0x20, 0x00, 0xe0,
   0x1f, 0x00, 0xf0, 0x01, 0x00, 0x60, 0x00, 0xe0, 0x1f, 0x00, 0xfc, 0x00,
   0x00, 0x20, 0x00, 0xe0, 0x1f, 0x00, 0xfc, 0x00, 0x00, 0x04, 0x00, 0xe0,
   0x1f, 0x00, 0xf2, 0x01, 0x00, 0x05, 0x00, 0xe0, 0x1f, 0x00, 0xf0, 0x03,
   0x00, 0x04, 0x00, 0xe0, 0x1f, 0x00, 0xf8, 0x03, 0x00, 0xd9, 0x00, 0xe0,
   0x1f, 0x00, 0xf0, 0x03, 0x00, 0x00, 0x00, 0xe0, 0x1f, 0x00, 0x80, 0x01,
   0x00, 0x00, 0x00, 0xe0, 0x1f, 0x00, 0x00, 0x00, 0x00, 0x00, 0x00, 0xe0,
   0x1f, 0x00, 0x00, 0x00, 0x00, 0x00, 0x00, 0xe0, 0x1f, 0x00, 0x00, 0x00,
   0x00, 0x00, 0x00, 0xe0, 0x1f, 0x00, 0x00, 0x00, 0x00, 0x00, 0x00, 0xe0,
   0x1f, 0x00, 0x00, 0x00, 0x00, 0x00, 0x00, 0xe0, 0x1f, 0x00, 0x00, 0x00,
   0x00, 0x00, 0x00, 0xe0, 0x1f, 0x00, 0x00, 0x00, 0x00, 0x00, 0x00, 0xe0,
   0x1f, 0x00, 0x40, 0x00, 0x00, 0x00, 0x00, 0xe0, 0x1f, 0x00, 0x60, 0x00,
   0x00, 0x00, 0x00, 0xe0, 0x1f, 0x00, 0xdb, 0x00, 0x00, 0x00, 0x00, 0xe0,
   0x1f, 0x00, 0x91, 0x00, 0x00, 0x00, 0x00, 0xe0, 0x1f, 0x00, 0x45, 0x00,
   0x00, 0x00, 0x00, 0xe0, 0x1f, 0x00, 0xd1, 0x00, 0x00, 0x00, 0x00, 0xe0,
   0x1f, 0x00, 0x35, 0x00, 0x00, 0x00, 0x00, 0xe0, 0x1f, 0x00, 0x1c, 0x00,
   0x00, 0x00, 0x00, 0xe0, 0x1f, 0x00, 0x1c, 0x00, 0x00, 0x00, 0x00, 0xe0,
   0x1f, 0x00, 0x00, 0x00, 0x00, 0x00, 0x00, 0xe0, 0x1f, 0x00, 0x60, 0x00,
   0x00, 0x00, 0x00, 0xe0, 0x1f, 0x00, 0xf1, 0x00, 0x00, 0x00, 0x00, 0xe0,
   0x1f, 0x00, 0xff, 0x00, 0x00, 0x00, 0x00, 0xe0, 0x1f, 0x00, 0xff, 0x01,
   0x00, 0x00, 0x00, 0xe0, 0x1f, 0x00, 0xff, 0x00, 0x00, 0x00, 0x00, 0xe0,
   0x1f, 0x00, 0x7f, 0x00, 0x00, 0x00, 0x00, 0xe0, 0x1f, 0x00, 0x3d, 0x00,
   0x00, 0x00, 0x00, 0xe0, 0x1f, 0x00, 0x3c, 0x00, 0x00, 0x00, 0x00, 0xe0,
   0x1f, 0x00, 0xd4, 0x05, 0x00, 0x00, 0x00, 0xe0, 0x1f, 0x00, 0x40, 0x06,
   0x00, 0x00, 0x00, 0xe0, 0x1f, 0x00, 0x30, 0x06, 0x00, 0x06, 0x00, 0xe0,
   0x1f, 0x00, 0xa0, 0x04, 0x00, 0x3f, 0x00, 0xe0, 0x1f, 0x00, 0x60, 0x06,
   0x80, 0x00, 0x00, 0xe0, 0x1f, 0x00, 0xc0, 0x05, 0x80, 0x20, 0x00, 0xe0,
   0x1f, 0x00, 0x00, 0x00, 0x00, 0x01, 0x00, 0xe0, 0x1f, 0x00, 0x00, 0x00,
   0x00, 0x3e, 0x00, 0xe0, 0x1f, 0x00, 0x00, 0x00, 0x00, 0x2b, 0x00, 0xe0,
   0x1f, 0x00, 0x00, 0x00, 0x00, 0x21, 0x00, 0xe0, 0x1f, 0x00, 0x00, 0x00,
   0x00, 0x00, 0x00, 0xe0, 0x1f, 0x00, 0x00, 0x00, 0x40, 0x49, 0x00, 0xe0,
   0x1f, 0x00, 0x00, 0x00, 0x20, 0x25, 0x01, 0xe0, 0x1f, 0x00, 0x00, 0x00,
   0x80, 0x20, 0x02, 0xe0, 0x1f, 0x00, 0x00, 0x00, 0x80, 0x20, 0x02, 0xe0,
   0x1f, 0x00, 0x00, 0x00, 0x80, 0xf9, 0x01, 0xe0, 0x1f, 0x00, 0x00, 0x00,
   0x00, 0x0e, 0x00, 0xe0, 0x1f, 0x00, 0x00, 0x00, 0x00, 0x30, 0x00, 0xe0,
   0x1f, 0x00, 0x00, 0x00, 0x00, 0x20, 0x00, 0xe0, 0x1f, 0x00, 0x00, 0x00,
   0x20, 0x20, 0x00, 0xe0, 0x1f, 0x00, 0x00, 0x00, 0xe0, 0x0f, 0x00, 0xe0,
   0x1f, 0x00, 0x00, 0x00, 0x00, 0x0c, 0x00, 0xe0, 0x1f, 0x00, 0x00, 0x00,
   0x00, 0x38, 0x00, 0xe0, 0x1f, 0x00, 0x00, 0x00, 0x00, 0x02, 0x00, 0xe0,
   0x1f, 0x00, 0x00, 0x00, 0x00, 0x1e, 0x01, 0xe0, 0x1f, 0x00, 0x00, 0x00,
   0x00, 0xb1, 0x02, 0xe0, 0x1f, 0x00, 0x00, 0x00, 0x80, 0x40, 0x02, 0xe0,
   0x1f, 0x00, 0x00, 0x00, 0x80, 0x31, 0x02, 0xe0, 0x1f, 0x00, 0x00, 0x00,
   0x00, 0x1e, 0x01, 0xe0, 0x1f, 0x00, 0x00, 0x00, 0x00, 0x0a, 0x00, 0xe0,
   0x1f, 0x00, 0x00, 0x00, 0x00, 0x12, 0x00, 0xe0, 0x1f, 0x00, 0x00, 0x00,
   0x80, 0x3f, 0x00, 0xe0, 0x1f, 0x00, 0x00, 0x00, 0x80, 0x40, 0x00, 0xe0,
   0x1f, 0x00, 0x00, 0x00, 0x80, 0x04, 0x00, 0xe0, 0x1f, 0x00, 0x00, 0x00,
   0x00, 0x30, 0x00, 0xe0, 0x1f, 0x00, 0x00, 0x00, 0x00, 0x00, 0x00, 0xe0,
   0x1f, 0x00, 0x00, 0x00, 0x00, 0x10, 0x00, 0xe0, 0x1f, 0x00, 0x00, 0x00,
   0x00, 0x20, 0x00, 0xe0, 0x1f, 0x00, 0x00, 0x00, 0x00, 0x2a, 0x00, 0xe0,
   0x1f, 0x00, 0x00, 0x00, 0x80, 0x33, 0x00, 0xe0, 0x1f, 0x00, 0x00, 0x00,
   0x00, 0x21, 0x00, 0xe0, 0x1f, 0x00, 0x00, 0x00, 0x00, 0x60, 0x00, 0xe0,
   0x1f, 0x00, 0x00, 0x00, 0x00, 0x00, 0x00, 0xe0, 0x1f, 0x00, 0x00, 0x00,
   0x00, 0x00, 0x00, 0xe0, 0x1f, 0x00, 0x00, 0x00, 0x00, 0x00, 0x00, 0xe0,
   0x1f, 0x00, 0x00, 0x00, 0x00, 0x00, 0x00, 0xe0, 0x1f, 0x00, 0x00, 0x00,
   0x00, 0x00, 0x00, 0xe0, 0x1f, 0x00, 0x00, 0x00, 0x00, 0x00, 0x00, 0xe0,
   0x1f, 0x00, 0x00, 0x00, 0x00, 0x00, 0x00, 0xe0, 0x1f, 0x00, 0x00, 0x00,
   0x00, 0x00, 0x00, 0xe0, 0x1f, 0x00, 0x00, 0x00, 0x00, 0x00, 0x00, 0xe0,
   0x1f, 0x00, 0x00, 0x00, 0x00, 0x00, 0x00, 0xe0, 0x1f, 0x00, 0x00, 0x00,
   0x00, 0x00, 0x00, 0xe0, 0x1f, 0x00, 0x00, 0x00, 0x00, 0x00, 0x00, 0xe0,
   0x1f, 0x00, 0x00, 0x00, 0x00, 0x00, 0x00, 0xe0, 0x1f, 0x00, 0x00, 0x00,
   0x00, 0x00, 0x00, 0xe0, 0x1f, 0x00, 0x00, 0x00, 0x00, 0x00, 0x00, 0xe0,
   0x1f, 0x00, 0x00, 0x00, 0x00, 0x00, 0x00, 0xe0, 0x1f, 0x00, 0x00, 0x00,
   0x00, 0x00, 0x00, 0xe0, 0x1f, 0x00, 0x00, 0x00, 0x00, 0x00, 0x00, 0xe0,
   0x1f, 0x00, 0x00, 0x00, 0x00, 0x00, 0x00, 0xe0, 0x1f, 0x00, 0x00, 0x00,
   0x00, 0x00, 0x00, 0xe0, 0x1f, 0x00, 0x00, 0x00, 0x00, 0x00, 0x00, 0xe0,
   0x1f, 0x00, 0x00, 0x00, 0x00, 0x00, 0x00, 0xe0, 0x1f, 0x00, 0x00, 0x00,
   0x00, 0x00, 0x00, 0xe0, 0x1f, 0x00, 0x00, 0x00, 0x00, 0x00, 0x00, 0xe0,
   0x1f, 0x00, 0x00, 0x00, 0x00, 0x00, 0x00, 0xe0, 0x1f, 0x00, 0x00, 0x00,
   0x00, 0x00, 0x00, 0xe0, 0x1f, 0x00, 0x00, 0x00, 0x00, 0x00, 0x00, 0xe0,
   0x1f, 0x00, 0x00, 0x00, 0x00, 0x00, 0x00, 0xe0, 0x1f, 0x00, 0x00, 0x00,
   0x00, 0x00, 0x00, 0xe0, 0x1f, 0x00, 0x00, 0x00, 0x00, 0x00, 0x00, 0xe0,
   0x1f, 0x00, 0x00, 0x00, 0x00, 0x00, 0x00, 0xe0, 0x1f, 0x00, 0x00, 0x00,
   0x00, 0x00, 0x00, 0xe0, 0x1f, 0x00, 0x00, 0x00, 0x00, 0x00, 0x00, 0xe0,
   0x1f, 0x00, 0x00, 0x00, 0x00, 0x00, 0x00, 0xe0, 0x1f, 0x00, 0x00, 0x00,
   0x00, 0x00, 0x00, 0xe0, 0x1f, 0x00, 0x00, 0x00, 0x00, 0x00, 0x00, 0xe0,
   0x1f, 0x00, 0x00, 0x00, 0x00, 0x00, 0x00, 0xe0, 0x1f, 0x00, 0x00, 0x00,
   0x00, 0x00, 0x00, 0xe0, 0x1f, 0x00, 0x00, 0x00, 0x00, 0x00, 0x00, 0xe0,
   0x1f, 0x00, 0x00, 0x00, 0x00, 0x00, 0x00, 0xe0, 0x1f, 0x00, 0x00, 0x00,
   0x00, 0x00, 0x00, 0xe0, 0x1f, 0x00, 0x00, 0x00, 0x00, 0x00, 0x00, 0xe0,
   0x1f, 0x00, 0x00, 0x00, 0x00, 0x00, 0x00, 0xe0, 0x1f, 0x00, 0x00, 0x00,
   0x00, 0x00, 0x00, 0xe0, 0x1f, 0x00, 0x00, 0x00, 0x00, 0x00, 0x00, 0xe0,
   0x1f, 0x00, 0x00, 0x00, 0x00, 0x00, 0x00, 0xe0, 0x1f, 0x00, 0x00, 0x00,
   0x00, 0x00, 0x00, 0xe0, 0x1f, 0x00, 0x00, 0x00, 0x00, 0x00, 0x00, 0xe0,
   0x1f, 0x00, 0x00, 0x00, 0x00, 0x00, 0x00, 0xe0, 0x1f, 0x00, 0x00, 0x00,
   0x00, 0x00, 0x00, 0xe0, 0x1f, 0x00, 0x00, 0x00, 0x00, 0x00, 0x00, 0xe0,
   0x1f, 0x00, 0x00, 0x00, 0x00, 0x00, 0x00, 0xe0, 0x1f, 0x00, 0x00, 0x00,
   0x00, 0x00, 0x00, 0xe0, 0x1f, 0x00, 0x00, 0x00, 0x00, 0x00, 0x00, 0xe0,
   0x1f, 0x00, 0x00, 0x00, 0x00, 0x00, 0x00, 0xe0, 0x1f, 0x00, 0x00, 0x00,
   0x00, 0x00, 0x00, 0xe0, 0x1f, 0x00, 0x00, 0x00, 0x00, 0x00, 0x00, 0xe0,
   0x1f, 0x00, 0x00, 0x00, 0x00, 0x00, 0x00, 0xe0, 0x1f, 0x00, 0x00, 0x00,
   0x00, 0x00, 0x00, 0xe0, 0x1f, 0x00, 0x00, 0x00, 0x00, 0x00, 0x00, 0xe0,
   0x1f, 0x00, 0x00, 0x00, 0x00, 0x00, 0x00, 0xe0, 0x1f, 0x00, 0x00, 0x00,
   0x00, 0x00, 0x00, 0xe0, 0x1f, 0x00, 0x00, 0x00, 0x00, 0x00, 0x00, 0xe0,
   0x1f, 0x00, 0x00, 0x00, 0x00, 0x00, 0x00, 0xe0, 0x1f, 0x00, 0x00, 0x00,
   0x00, 0x00, 0x00, 0xe0, 0x1f, 0x00, 0x00, 0x00, 0x00, 0x00, 0x00, 0xe0,
   0x1f, 0x00, 0x00, 0x00, 0x00, 0x00, 0x00, 0xe0, 0x1f, 0x00, 0x00, 0x00,
   0x00, 0x00, 0x00, 0xe0, 0x1f, 0x00, 0x00, 0x00, 0x00, 0x00, 0x00, 0xe0,
   0x1f, 0x00, 0x00, 0x00, 0x00, 0x00, 0x00, 0xe0, 0x1f, 0x00, 0x00, 0x00,
   0x00, 0x00, 0x00, 0xe0, 0x1f, 0x00, 0x00, 0x00, 0x00, 0x00, 0x00, 0xe0,
   0x1f, 0x00, 0x00, 0x00, 0x00, 0x00, 0x00, 0xe0, 0x1f, 0x00, 0x00, 0x00,
   0x00, 0x00, 0x00, 0xe0, 0x1f, 0x00, 0x00, 0x00, 0x00, 0x00, 0x00, 0xe0,
   0xff, 0xff, 0xff, 0xff, 0xff, 0xff, 0xff, 0xff, 0xff, 0xff, 0xff, 0xff,
   0xff, 0xff, 0xff, 0xff, 0xff, 0xff, 0xff, 0xff, 0xff, 0xff, 0xff, 0xff,
   0xff, 0xff, 0xff, 0xff, 0xff, 0xff, 0xff, 0xff, 0xff, 0xff, 0xff, 0xff,
   0xff, 0xff, 0xff, 0xff };
